<?xml version="1.0" standalone="no"?>
<!DOCTYPE svg PUBLIC "-//W3C//DTD SVG 20010904//EN"
 "http://www.w3.org/TR/2001/REC-SVG-20010904/DTD/svg10.dtd">
<svg version="1.0" xmlns="http://www.w3.org/2000/svg"
 width="640.000000pt" height="640.000000pt" viewBox="0 0 640.000000 640.000000"
 preserveAspectRatio="xMidYMid meet">

<g transform="translate(0.000000,640.000000) scale(0.100000,-0.100000)"
fill="#000000" stroke="none">
<path d="M3181 6133 c6 -6 26 -10 45 -8 54 5 51 13 -5 16 -37 3 -47 1 -40 -8z"/>
<path d="M3180 6095 l-25 -14 30 -1 c17 0 48 3 70 7 31 5 35 8 20 14 -31 12
-68 10 -95 -6z"/>
<path d="M3490 6102 c0 -7 -12 -12 -27 -13 -25 0 -26 -1 -8 -9 21 -8 55 13 42
26 -4 4 -7 2 -7 -4z"/>
<path d="M3165 6031 c5 -10 83 -6 93 4 3 3 -18 5 -47 5 -30 0 -50 -4 -46 -9z"/>
<path d="M3447 6018 c6 -11 31 -10 37 1 3 5 -5 8 -18 7 -13 0 -22 -4 -19 -8z"/>
<path d="M3200 5970 c0 -5 5 -10 11 -10 5 0 7 5 4 10 -3 6 -8 10 -11 10 -2 0
-4 -4 -4 -10z"/>
<path d="M3093 5963 c15 -2 39 -2 55 0 15 2 2 4 -28 4 -30 0 -43 -2 -27 -4z"/>
<path d="M2978 5953 c12 -2 30 -2 40 0 9 3 -1 5 -23 4 -22 0 -30 -2 -17 -4z"/>
<path d="M3165 5941 c29 -7 28 -8 -15 -14 -25 -4 -65 -9 -90 -11 -95 -11 -128
-32 -77 -50 30 -11 49 0 27 14 -9 6 -10 10 -3 10 6 0 18 3 27 6 11 4 16 1 16
-10 0 -15 15 -17 128 -15 70 0 132 4 137 8 6 3 46 6 90 6 127 0 106 19 -35 31
-69 7 -127 13 -130 14 -3 1 9 6 25 10 21 5 6 8 -50 8 -53 0 -70 -3 -50 -7z
m62 -7 c-3 -3 -12 -4 -19 -1 -8 3 -5 6 6 6 11 1 17 -2 13 -5z"/>
<path d="M3488 5923 c7 -3 16 -2 19 1 4 3 -2 6 -13 5 -11 0 -14 -3 -6 -6z"/>
<path d="M3745 5300 l-20 -9 20 0 c11 0 29 4 40 9 l20 9 -20 0 c-11 0 -29 -4
-40 -9z"/>
<path d="M2514 4206 c-3 -8 -12 -12 -20 -9 -10 3 -12 0 -9 -10 4 -8 -1 -21 -9
-30 -12 -12 -13 -17 -3 -20 9 -4 9 -6 0 -6 -7 -1 -13 -11 -13 -24 0 -13 -3
-27 -7 -31 -14 -14 -10 -32 7 -32 10 0 16 4 14 8 -3 4 2 8 11 8 11 0 15 5 12
15 -4 8 -1 17 5 21 7 4 8 3 4 -4 -12 -20 7 -13 37 13 15 13 27 30 27 38 0 17
-24 40 -33 31 -3 -3 -4 6 -3 20 3 28 -11 36 -20 12z m-39 -136 c-3 -5 -12 -10
-18 -10 -7 0 -6 4 3 10 19 12 23 12 15 0z"/>
<path d="M3953 4163 c-4 -9 -1 -19 5 -21 7 -2 12 -11 12 -20 0 -11 3 -13 10
-6 7 7 8 19 1 37 -12 31 -19 34 -28 10z"/>
<path d="M3996 4075 c-3 -8 -1 -15 4 -15 6 0 10 7 10 15 0 8 -2 15 -4 15 -2 0
-6 -7 -10 -15z"/>
<path d="M2642 2783 l2 -58 3 54 c4 47 6 52 24 48 10 -3 17 -1 13 4 -3 5 -14
9 -25 9 -17 0 -19 -7 -17 -57z"/>
<path d="M2731 2788 c-1 -57 -1 -58 27 -57 23 2 24 2 5 6 -27 5 -31 39 -5 46
15 4 15 5 0 6 -10 1 -18 12 -21 29 -2 15 -5 1 -6 -30z"/>
<path d="M2841 2778 c1 -55 5 -50 11 15 2 20 0 37 -4 37 -4 0 -7 -24 -7 -52z"/>
<path d="M2920 2780 c0 -27 4 -50 9 -50 4 0 6 11 4 24 -4 17 0 25 14 29 17 5
17 5 -1 6 -13 1 -17 6 -13 21 3 11 1 20 -4 20 -5 0 -9 -22 -9 -50z"/>
<path d="M3031 2773 c1 -62 6 -56 11 15 2 23 0 42 -4 42 -5 0 -7 -26 -7 -57z"/>
<path d="M3065 2820 c3 -5 8 -10 11 -10 2 0 4 5 4 10 0 6 -5 10 -11 10 -5 0
-7 -4 -4 -10z"/>
<path d="M3143 2780 c0 -30 2 -43 4 -27 2 15 2 39 0 55 -2 15 -4 2 -4 -28z"/>
<path d="M3252 2818 c-29 -29 -3 -98 36 -98 12 0 9 4 -8 13 -28 14 -39 59 -19
83 14 17 8 19 -9 2z"/>
<path d="M3321 2813 c7 -12 15 -20 18 -17 3 2 -3 12 -13 22 -17 16 -18 16 -5
-5z"/>
<path d="M3390 2826 c0 -2 8 -10 18 -17 15 -13 16 -12 3 4 -13 16 -21 21 -21
13z"/>
<path d="M3060 2761 c5 -11 15 -23 21 -27 6 -3 3 5 -6 20 -20 30 -30 35 -15 7z"/>
<path d="M3391 2754 c0 -11 3 -14 6 -6 3 7 2 16 -1 19 -3 4 -6 -2 -5 -13z"/>
<path d="M3325 2749 c-4 -6 -5 -12 -2 -15 2 -3 7 2 10 11 7 17 1 20 -8 4z"/>
<path d="M3520 2756 c0 -2 8 -10 18 -17 15 -13 16 -12 3 4 -13 16 -21 21 -21
13z"/>
<path d="M2676 2565 c-21 -7 -44 -19 -50 -26 -8 -9 -6 -10 9 -4 72 28 93 34
121 35 18 0 42 -8 55 -19 35 -28 30 -100 -17 -236 -57 -169 -50 -235 24 -235
47 0 94 31 139 93 l38 52 6 -49 c4 -34 12 -54 28 -67 27 -22 47 -24 57 -7 5 8
2 9 -9 5 -9 -3 -24 1 -33 10 -24 24 -12 124 25 215 17 44 25 77 20 83 -15 16
-44 -24 -83 -114 -43 -98 -85 -162 -125 -190 -35 -25 -54 -26 -75 -5 -25 25
-19 77 24 201 50 146 53 202 11 244 -25 24 -37 29 -78 29 -26 -1 -65 -7 -87
-15z"/>
<path d="M3251 2554 c0 -11 3 -14 6 -6 3 7 2 16 -1 19 -3 4 -6 -2 -5 -13z"/>
<path d="M3281 2519 c-21 -26 -26 -36 -14 -28 17 10 61 69 51 69 -2 0 -18 -19
-37 -41z"/>
<path d="M3375 2549 c-4 -6 -5 -12 -2 -15 2 -3 7 2 10 11 7 17 1 20 -8 4z"/>
<path d="M3345 2529 c-4 -6 -5 -12 -2 -15 2 -3 7 2 10 11 7 17 1 20 -8 4z"/>
<path d="M3396 2523 c-6 -14 -5 -15 5 -6 7 7 10 15 7 18 -3 3 -9 -2 -12 -12z"/>
<path d="M3315 2519 c-4 -6 -5 -12 -2 -15 2 -3 7 2 10 11 7 17 1 20 -8 4z"/>
<path d="M3382 2350 c-46 -33 -82 -94 -82 -138 0 -59 50 -70 96 -20 l29 32
-33 -27 c-38 -31 -50 -33 -58 -12 -15 38 67 164 120 185 19 8 19 9 -5 9 -14 1
-45 -12 -67 -29z"/>
<path d="M3495 2370 c3 -5 8 -10 11 -10 2 0 4 5 4 10 0 6 -5 10 -11 10 -5 0
-7 -4 -4 -10z"/>
<path d="M3260 2340 c-14 -14 -19 -31 -17 -67 2 -53 -27 -106 -64 -118 -35
-11 -39 7 -19 84 11 40 17 77 14 82 -3 5 -15 9 -28 9 -18 0 -23 -6 -24 -32 -8
-177 -10 -163 21 -166 43 -5 108 67 136 149 11 34 21 67 21 71 0 14 -19 9 -40
-12z"/>
<path d="M3452 2285 c-17 -30 -26 -52 -21 -49 5 3 9 -4 9 -15 0 -11 9 -25 21
-31 24 -14 62 7 79 42 9 18 6 17 -10 -4 -47 -61 -70 -6 -30 72 20 39 20 40 1
40 -13 0 -29 -17 -49 -55z"/>
<path d="M3780 2136 c0 -2 8 -10 18 -17 15 -13 16 -12 3 4 -13 16 -21 21 -21
13z"/>
<path d="M3001 1964 c0 -11 3 -14 6 -6 3 7 2 16 -1 19 -3 4 -6 -2 -5 -13z"/>
<path d="M2763 1840 c1 -22 6 -24 24 -12 9 6 7 11 -7 20 -16 10 -18 9 -17 -8z"/>
<path d="M3136 1852 c-3 -5 -34 -12 -69 -14 -57 -5 -107 -23 -107 -39 0 -3 13
-6 29 -5 16 1 27 4 25 8 -2 3 22 4 53 2 57 -5 97 -23 120 -53 13 -18 13 -18
36 32 9 20 31 46 49 57 l33 20 -62 0 c-34 0 -65 -5 -68 -10 -5 -8 -11 -8 -20
0 -8 6 -16 7 -19 2z"/>
<path d="M2835 1840 c-3 -5 -3 -26 1 -45 l6 -36 33 38 c18 21 31 40 28 43 -2
2 -8 -2 -12 -9 -5 -8 -17 -11 -30 -6 -12 3 -19 11 -16 16 4 5 4 9 1 9 -3 0 -8
-4 -11 -10z"/>
<path d="M3310 1846 c0 -2 13 -6 29 -8 17 -2 28 -1 25 4 -5 8 -54 12 -54 4z"/>
<path d="M2596 1832 c-3 -6 1 -13 10 -16 23 -9 28 -2 10 13 -8 7 -17 8 -20 3z"/>
<path d="M2358 1813 c7 -3 16 -2 19 1 4 3 -2 6 -13 5 -11 0 -14 -3 -6 -6z"/>
<path d="M2420 1810 c-9 -6 -9 -9 1 -13 8 -3 -1 -6 -20 -6 -28 -1 -32 -3 -21
-16 10 -12 6 -13 -24 -8 -43 7 -46 -1 -7 -21 17 -9 28 -23 27 -33 0 -9 6 -18
14 -19 8 -2 36 -5 61 -9 39 -5 46 -9 42 -24 -3 -13 -14 -18 -39 -17 -19 1 -34
3 -34 6 0 3 -16 6 -36 7 -19 1 -41 7 -48 13 -11 8 -13 0 -10 -41 6 -80 9 -86
61 -93 25 -3 59 -6 74 -6 l29 0 0 -121 0 -122 -77 7 c-75 7 -77 7 -60 -12 9
-10 17 -22 17 -27 0 -20 71 -75 97 -76 15 0 55 -3 88 -7 108 -12 210 -9 207 6
-1 8 2 11 7 8 5 -4 12 -2 16 4 3 5 1 10 -5 10 -6 0 -8 5 -4 11 4 8 9 7 15 -2
5 -8 2 -20 -7 -30 -14 -16 -14 -18 3 -22 10 -3 43 -6 74 -6 41 -1 56 3 56 13
0 9 -10 13 -33 11 -32 -3 -32 -3 -18 23 8 16 10 28 4 30 -13 5 -13 52 0 52 35
0 78 -31 98 -70 12 -24 19 -47 16 -52 -6 -10 150 -11 160 0 4 4 13 7 19 7 12
0 32 64 22 73 -3 3 -14 -4 -25 -15 -15 -17 -31 -21 -81 -20 -51 0 -58 2 -38
10 22 9 23 10 4 14 -11 3 -26 12 -32 21 -12 14 -13 14 -13 -2 0 -16 -2 -16
-15 -2 -10 10 -14 25 -10 43 4 21 3 23 -3 9 -8 -18 -9 -18 -15 -2 -12 31 -8
56 15 89 13 18 24 34 25 36 1 2 14 5 28 7 14 1 32 7 39 13 15 13 60 0 88 -26
9 -8 22 -12 28 -8 6 3 10 3 9 -2 -5 -27 3 -43 21 -43 17 0 20 7 20 43 0 29 -3
38 -9 27 -6 -8 -7 -19 -3 -25 3 -5 -2 -4 -11 4 -17 13 -17 15 0 33 21 24 77
48 109 48 l23 0 -24 24 c-13 13 -27 36 -31 51 -8 31 -26 28 -34 -6 -4 -14 -13
-24 -23 -23 -74 3 -78 4 -71 17 5 8 3 8 -9 -2 -9 -7 -14 -18 -11 -25 3 -6 -1
-3 -9 7 -8 9 -19 17 -26 17 -13 0 -13 4 0 55 5 22 11 48 14 57 2 10 -2 21 -9
25 -7 5 -16 17 -19 27 -4 10 -10 16 -13 13 -4 -3 -3 -14 1 -24 12 -26 6 -56
-13 -70 -12 -10 -18 -10 -23 -1 -6 9 -11 9 -22 0 -12 -10 -16 -9 -21 3 -3 8
-12 15 -21 15 -8 0 -15 4 -15 10 0 5 -16 17 -35 26 -19 9 -35 21 -35 27 0 6
-7 2 -15 -9 -14 -19 -14 -19 -15 2 0 12 -8 31 -17 43 -21 24 -83 41 -83 22 0
-8 -6 -7 -16 3 -8 9 -20 14 -25 10 -5 -3 -12 2 -15 10 -3 9 -10 13 -15 10 -5
-3 -9 -1 -9 5 0 6 -7 8 -15 5 -8 -4 -15 -10 -15 -16 0 -5 5 -6 12 -2 7 4 8 3
4 -5 -6 -9 -11 -9 -21 -1 -10 9 -14 6 -18 -12 l-4 -23 -2 23 c-1 31 -40 48
-79 34 -16 -5 -47 -7 -70 -2 -22 4 -46 4 -52 0z m477 -256 c-3 -3 -12 -4 -19
-1 -8 3 -5 6 6 6 11 1 17 -2 13 -5z m-23 -30 c9 -8 14 -20 11 -25 -4 -5 2 -6
11 -2 10 4 20 0 25 -10 5 -9 17 -13 28 -10 15 4 18 0 14 -20 -3 -17 -10 -24
-19 -20 -10 4 -12 0 -8 -11 5 -12 0 -16 -16 -16 -23 0 -23 0 4 25 25 23 25 25
7 25 -12 0 -21 4 -21 9 0 6 -9 9 -20 8 -25 -2 -25 -5 1 -26 21 -16 20 -17 -15
-16 -20 1 -42 8 -49 15 -10 10 -9 11 3 5 12 -6 13 -5 3 6 -26 27 -14 74 19 78
4 1 14 -6 22 -15z m85 -17 c8 -10 7 -14 -2 -14 -8 0 -14 6 -14 14 0 7 1 13 2
13 2 0 8 -6 14 -13z m-218 -75 c-7 -2 -18 1 -23 6 -8 8 -4 9 13 5 13 -4 18 -8
10 -11z m6 -18 c-3 -3 -12 -4 -19 -1 -8 3 -5 6 6 6 11 1 17 -2 13 -5z m17 -45
c4 -20 1 -38 -6 -47 -11 -13 -10 -15 4 -9 12 4 15 2 11 -9 -6 -16 -23 -19 -23
-4 0 6 1 11 2 13 1 1 -4 12 -11 25 -12 23 -7 62 8 62 5 0 11 -14 15 -31z m-6
-122 c-3 -22 -38 -38 -38 -18 0 6 6 8 14 5 10 -4 12 2 9 21 -3 14 -9 28 -14
31 -5 3 -9 9 -9 15 0 5 9 0 21 -12 11 -11 19 -30 17 -42z m59 -14 c-3 -10 -5
-4 -5 12 0 17 2 24 5 18 2 -7 2 -21 0 -30z"/>
<path d="M4000 1805 c0 -8 5 -15 10 -15 6 0 10 5 10 11 0 6 7 8 16 5 8 -3 12
-2 9 4 -10 16 -45 12 -45 -5z"/>
<path d="M3660 1779 c0 -15 5 -20 22 -17 12 2 23 9 26 17 3 8 0 11 -6 7 -6 -3
-13 -2 -17 4 -11 17 -25 11 -25 -11z"/>
<path d="M4000 1766 c0 -9 8 -12 27 -8 25 5 25 6 8 13 -29 11 -35 10 -35 -5z"/>
<path d="M3660 1731 c0 -18 17 -38 25 -30 12 14 8 44 -7 47 -13 2 -18 -3 -18
-17z"/>
<path d="M4000 1724 c0 -8 5 -12 10 -9 6 3 10 10 10 16 0 5 -4 9 -10 9 -5 0
-10 -7 -10 -16z"/>
<path d="M3200 1720 c0 -5 -10 -10 -22 -11 -22 -1 -22 -1 2 -9 41 -13 48 -11
43 10 -5 20 -23 28 -23 10z"/>
<path d="M4010 1689 c0 -5 5 -7 10 -4 6 3 10 8 10 11 0 2 -4 4 -10 4 -5 0 -10
-5 -10 -11z"/>
<path d="M3535 1550 c-18 -19 -17 -20 3 -20 12 0 22 -5 22 -11 0 -6 -7 -9 -15
-5 -8 3 -40 -7 -71 -21 -54 -25 -58 -25 -85 -9 -15 9 -30 12 -33 7 -3 -5 4
-11 17 -15 23 -5 53 -48 67 -94 7 -24 8 -21 9 16 1 36 7 50 32 73 17 16 41 29
54 29 32 0 50 24 30 40 -8 7 -12 16 -9 21 9 16 -2 10 -21 -11z"/>
<path d="M3736 1552 c-3 -5 0 -9 7 -9 7 0 24 -4 40 -8 17 -5 27 -3 27 4 0 6
-9 11 -19 11 -11 0 -26 3 -34 6 -8 3 -17 1 -21 -4z"/>
<path d="M3658 1512 c-30 -18 -36 -32 -15 -32 6 0 20 12 30 25 21 29 20 30
-15 7z"/>
<path d="M2290 1445 c0 -43 4 -75 10 -75 6 0 10 32 10 75 0 43 -4 75 -10 75
-6 0 -10 -32 -10 -75z"/>
<path d="M2410 1436 c0 -44 4 -76 10 -76 6 0 10 30 10 69 0 39 -4 73 -10 76
-6 4 -10 -22 -10 -69z"/>
<path d="M2450 1425 c0 -41 4 -75 8 -75 5 0 8 34 8 75 -1 41 -4 75 -8 75 -5 0
-8 -34 -8 -75z"/>
<path d="M2980 1371 c-15 -29 -12 -41 9 -41 14 0 18 -5 14 -19 -6 -25 26 -57
55 -53 12 2 22 -1 22 -7 0 -6 11 -11 25 -11 14 0 25 5 25 10 0 6 7 10 15 10 9
0 20 12 25 26 11 27 5 48 -10 39 -13 -8 -25 16 -21 43 4 33 -18 27 -34 -10 -8
-18 -14 -27 -15 -20 0 6 -7 12 -16 12 -8 0 -12 -4 -9 -10 4 -6 -2 -7 -17 -1
-12 4 -25 17 -28 27 -7 26 -27 28 -40 5z"/>
<path d="M3308 1373 c7 -3 16 -2 19 1 4 3 -2 6 -13 5 -11 0 -14 -3 -6 -6z"/>
<path d="M3355 1370 c3 -5 10 -10 16 -10 5 0 9 5 9 10 0 6 -7 10 -16 10 -8 0
-12 -4 -9 -10z"/>
<path d="M3160 1355 c0 -8 4 -15 10 -15 5 0 7 7 4 15 -4 8 -8 15 -10 15 -2 0
-4 -7 -4 -15z"/>
<path d="M3212 1300 c0 -14 2 -19 5 -12 2 6 2 18 0 25 -3 6 -5 1 -5 -13z"/>
<path d="M3340 1309 c0 -5 5 -7 10 -4 6 3 10 8 10 11 0 2 -4 4 -10 4 -5 0 -10
-5 -10 -11z"/>
<path d="M3372 1308 c-16 -16 -15 -28 1 -28 7 0 13 9 13 20 0 11 -1 20 -1 20
-1 0 -6 -5 -13 -12z"/>
<path d="M3431 1295 c-3 -30 -3 -30 -11 -5 l-8 25 -1 -27 c-1 -15 4 -30 9 -33
6 -3 10 -2 10 4 0 6 7 8 15 5 8 -4 15 -1 15 6 0 6 -4 9 -9 5 -5 -3 -12 7 -14
22 l-4 28 -2 -30z"/>
<path d="M3226 1293 c-3 -10 -8 -23 -11 -28 -3 -6 4 -11 15 -11 16 0 18 5 13
26 -8 33 -9 34 -17 13z"/>
<path d="M3250 1303 c0 -5 7 -18 15 -29 13 -18 14 -18 8 4 -5 22 -23 41 -23
25z"/>
<path d="M3827 1289 c7 -7 15 -10 18 -7 3 3 -2 9 -12 12 -14 6 -15 5 -6 -5z"/>
<path d="M3470 1280 c0 -5 5 -10 10 -10 6 0 10 5 10 10 0 6 -4 10 -10 10 -5 0
-10 -4 -10 -10z"/>
<path d="M3565 1280 c3 -5 11 -10 16 -10 6 0 7 5 4 10 -3 6 -11 10 -16 10 -6
0 -7 -4 -4 -10z"/>
<path d="M3297 1269 c7 -7 15 -10 18 -7 3 3 -2 9 -12 12 -14 6 -15 5 -6 -5z"/>
<path d="M3284 254 c-7 -3 -10 -13 -7 -22 3 -14 13 -16 51 -13 26 2 44 0 41
-3 -3 -4 -41 -9 -84 -11 -124 -8 -102 -17 35 -15 69 1 130 1 135 0 8 -1 123 0
200 2 66 2 96 -3 89 -14 -5 -8 -2 -9 10 -5 10 4 15 3 11 -3 -3 -6 -12 -10 -20
-10 -20 0 -30 -21 -14 -31 11 -7 10 -9 -4 -9 -10 0 -16 -4 -13 -9 8 -13 48 -1
43 13 -3 7 4 12 14 12 13 0 15 -4 8 -12 -7 -9 1 -11 33 -8 65 6 159 35 165 51
3 7 9 13 14 13 17 0 51 38 45 48 -3 6 1 13 9 15 11 4 10 4 -2 3 -10 -1 -17 -9
-17 -19 2 -16 -32 -34 -43 -23 -4 3 1 6 10 6 10 0 17 5 17 11 0 13 -133 2
-138 -12 -2 -5 -8 -9 -13 -9 -6 0 -7 5 -4 10 10 16 -62 12 -78 -5 -9 -8 -17
-10 -19 -5 -3 9 -160 16 -193 10 -35 -7 -105 2 -105 13 0 8 -12 12 -32 12 -19
-1 -38 6 -46 14 -11 14 -11 14 -6 -2 5 -13 2 -16 -10 -11 -9 3 -14 9 -11 13 2
4 -2 8 -10 8 -8 0 -12 -4 -10 -8 3 -3 -7 -9 -21 -12 -18 -3 -24 -1 -20 9 3 8
4 14 3 13 -1 0 -7 -3 -13 -5z m162 -37 c2 -2 -12 -4 -31 -4 -20 0 -30 4 -24 8
11 7 47 4 55 -4z"/>
<path d="M2377 226 c4 -17 0 -25 -14 -29 -16 -4 -16 -5 0 -6 9 0 17 -5 17 -11
0 -7 74 -34 87 -32 2 1 17 -4 35 -9 51 -15 156 -30 237 -35 40 -2 77 -7 82
-10 18 -10 545 -16 529 -5 -21 15 5 14 29 -1 11 -7 26 -8 37 -3 11 5 21 9 24
10 3 1 12 4 20 8 8 3 24 8 35 10 15 4 13 5 -7 6 -15 0 -30 -4 -33 -9 -4 -7
-12 -7 -18 -2 -19 13 -137 15 -153 1 -11 -9 -14 -8 -14 7 -1 18 -1 18 -14 2
-15 -21 -66 -24 -85 -5 -10 10 -14 8 -22 -6 -10 -16 -13 -17 -33 -4 -16 11
-27 12 -40 5 -14 -8 -21 -7 -27 3 -7 12 -9 12 -9 0 0 -12 -3 -11 -17 1 -13 11
-48 18 -117 21 -54 3 -101 8 -104 11 -3 3 -12 0 -20 -7 -10 -7 -13 -8 -9 -1 4
7 -3 14 -17 16 -19 4 -24 1 -21 -14 2 -10 0 -16 -6 -13 -5 4 -7 11 -3 16 3 6
-4 13 -15 16 -18 5 -19 8 -9 21 10 12 6 11 -14 -2 -22 -14 -28 -15 -28 -5 0
11 -2 11 -10 -1 -9 -14 -15 -7 -11 14 1 5 -6 3 -15 -5 -16 -12 -17 -12 -9 1 6
12 5 13 -6 3 -18 -17 -29 -16 -29 2 0 8 9 15 20 15 11 0 20 4 20 9 0 4 -29 11
-65 15 -36 4 -77 11 -91 17 -18 6 -31 6 -39 -1 -9 -8 -15 -8 -20 0 -13 20 -32
11 -28 -14z m558 -116 c3 -5 1 -10 -4 -10 -6 0 -11 5 -11 10 0 6 2 10 4 10 3
0 8 -4 11 -10z m81 -2 c3 -4 -6 -5 -20 -4 -15 2 -30 6 -34 10 -3 4 5 6 20 4
15 -2 30 -7 34 -10z m409 -8 c-3 -5 -11 -10 -16 -10 -6 0 -7 5 -4 10 3 6 11
10 16 10 6 0 7 -4 4 -10z"/>
<path d="M3470 229 c0 -5 5 -7 10 -4 6 3 10 8 10 11 0 2 -4 4 -10 4 -5 0 -10
-5 -10 -11z"/>
<path d="M3038 143 c7 -3 16 -2 19 1 4 3 -2 6 -13 5 -11 0 -14 -3 -6 -6z"/>
<path d="M3143 133 c9 -2 25 -2 35 0 9 3 1 5 -18 5 -19 0 -27 -2 -17 -5z"/>
<path d="M3216 125 c-3 -8 -1 -15 3 -15 5 0 11 7 15 15 3 8 1 15 -3 15 -5 0
-11 -7 -15 -15z"/>
<path d="M3680 110 c-9 -6 -10 -10 -3 -10 6 0 15 5 18 10 8 12 4 12 -15 0z"/>
<path d="M3545 99 c-16 -6 -14 -8 13 -8 33 -1 41 4 20 12 -7 2 -22 1 -33 -4z"/>
</g>
</svg>
