<?xml version="1.0" encoding="iso-8859-1"?>
<!-- Generator: Adobe Illustrator 18.0.0, SVG Export Plug-In . SVG Version: 6.00 Build 0)  -->
<!DOCTYPE svg PUBLIC "-//W3C//DTD SVG 1.1//EN" "http://www.w3.org/Graphics/SVG/1.1/DTD/svg11.dtd">
<svg version="1.1" id="Capa_1" xmlns="http://www.w3.org/2000/svg" xmlns:xlink="http://www.w3.org/1999/xlink" x="0px" y="0px"
	 viewBox="0 0 255 255" style="enable-background:new 0 0 255 255;" xml:space="preserve">
<path d="M45.732,180.927c0-19.202,7.407-37.341,20.857-51.076l10.717,10.495c-10.688,10.914-16.574,25.326-16.574,40.581V240
	h133.535v-59.073c0-15.257-5.885-29.669-16.571-40.583l10.717-10.494c13.448,13.733,20.854,31.873,20.854,51.077V255H45.732V180.927
	z M58.016,75.11c0-16.761,1.368-35.911,11.519-50.856C80.618,7.934,99.579,0,127.5,0s46.882,7.934,57.966,24.254
	c10.15,14.945,11.519,34.095,11.519,50.856c0,38.315-31.171,69.487-69.484,69.487S58.016,113.426,58.016,75.11z M73.016,75.11
	c0,30.044,24.441,54.487,54.484,54.487s54.484-24.443,54.484-54.487c0-14.481-1.061-30.846-8.928-42.429
	C164.977,20.784,150.075,15,127.5,15s-37.477,5.784-45.557,17.681C74.076,44.265,73.016,60.629,73.016,75.11z" fill="#c0b3c2"/>
<g>
</g>
<g>
</g>
<g>
</g>
<g>
</g>
<g>
</g>
<g>
</g>
<g>
</g>
<g>
</g>
<g>
</g>
<g>
</g>
<g>
</g>
<g>
</g>
<g>
</g>
<g>
</g>
<g>
</g>
</svg>
